# xmcd CD database file
#
# Track frame offsets:
#	150
#	25176
#	37285
#	58022
#	69268
#	83840
#	101441
#	119155
#	136739
#	151343
#	164537
#
# Disc length: 2486 seconds
#
# Revision: 0
# Processed by: cddbd v1.5.1PL0 Copyright (c) Steve Scherf et al.
# Submitted via: CDex 1.51
#
DISCID=9209b40b
DTITLE=The Notting Hillbillies - Missing....
DYEAR=1900
DGENRE=Country
TTITLE0=Railroad work song
TTITLE1=Bewildered
TTITLE2=Your own sweet way
TTITLE3=Run me down
TTITLE4=One way gal
TTITLE5=Blues stay away
TTITLE6=Will you miss me
TTITLE7=Please baby
TTITLE8=Weapon of prayer
TTITLE9=That´s where I belong
TTITLE10=Feel like going home
EXTD=
EXTT0=
EXTT1=
EXTT2=
EXTT3=
EXTT4=
EXTT5=
EXTT6=
EXTT7=
EXTT8=
EXTT9=
EXTT10=
PLAYORDER=
